# xmcd
#
# Track frame offsets:
#  150
#  14130
#  26210
#  44640
#  55757
#  65815
#  84945
#  99505
#  119735
#  137622
#  150127
#  162412
#  178317
#
# Disc length: 2577 seconds
#
# Revision: 4
# Processed by: cddbd v1.4PL0 Copyright (c) Steve Scherf et al.
# Submitted via: AltoMP3_Maker 3.0
#
DISCID=b60a0f0d
DTITLE=Various Artist - Country Music Awards of Australia Silve Jubilee CD 1
DYEAR=1900
DGENRE=
TTITLE0=Lights On The Hill - Slim Dusty
TTITLE1=Country Music Hall Of Fame - Reg Poole
TTITLE2=What Kind Of Girl Do You Think I Am - Jean Stafford
TTITLE3=My Lancashire Yodelling Lass - Rex Dallas
TTITLE4=The Closest Thing To Freedom - Lindsay Butler
TTITLE5=Silence On The Line - Reg Lindsay
TTITLE6=One Day At A Time - The Hawking Brothers
TTITLE7=King Of The Rodeo - Alan Caswell
TTITLE8=I Love You So Rebecca - Johnny Chester
TTITLE9=Liftin' Me Up, Lettin' Me Down - 1901
TTITLE10=Home Among The Gumtrees - Bullamkanka
TTITLE11=Send All The Ghosts Away - Jewel Blanch
TTITLE12=Beautiful Lady - Patsy Rigger
EXTD=
EXTT0=
EXTT1=
EXTT2=
EXTT3=
EXTT4=
EXTT5=
EXTT6=
EXTT7=
EXTT8=
EXTT9=
EXTT10=
EXTT11=
EXTT12=
PLAYORDER=
